<svg width="6" height="8" viewBox="0 0 6 8" fill="none" xmlns="http://www.w3.org/2000/svg">
<path d="M5.31302 2.89903C5.37948 2.89903 5.43978 2.92803 5.48743 2.97703C5.53185 3.02937 5.55421 3.09437 5.54773 3.16303C5.54773 3.1857 5.37008 5.43234 5.26861 6.378C5.20507 6.95833 4.83096 7.31066 4.2698 7.32032C3.83831 7.32999 3.41654 7.33332 3.00126 7.33332C2.56037 7.33332 2.12921 7.32999 1.71069 7.32032C1.16833 7.30732 0.793895 6.94866 0.733596 6.378C0.629209 5.42901 0.454798 3.1857 0.451556 3.16303C0.448314 3.09437 0.470359 3.02937 0.515096 2.97703C0.559185 2.92803 0.622725 2.89903 0.689507 2.89903H5.31302ZM3.68824 0.666656C3.98293 0.666656 4.24616 0.872321 4.32235 1.16565L4.37681 1.40898C4.4209 1.60731 4.59272 1.74765 4.79047 1.74765H5.76237C5.89205 1.74765 6 1.85531 6 1.99231V2.11898C6 2.25264 5.89205 2.36364 5.76237 2.36364H0.237951C0.107953 2.36364 0 2.25264 0 2.11898V1.99231C0 1.85531 0.107953 1.74765 0.237951 1.74765H1.20986C1.40728 1.74765 1.5791 1.60731 1.62351 1.40932L1.67441 1.18198C1.75351 0.872321 2.01383 0.666656 2.31176 0.666656H3.68824Z" fill="#E01A00"/>
</svg>
