<svg width="18" height="18" viewBox="0 0 18 18" fill="none" xmlns="http://www.w3.org/2000/svg">
<path d="M9.00018 17.3197C4.39218 17.3197 0.680176 13.6077 0.680176 8.99969C0.680176 4.39169 4.39218 0.679688 9.00018 0.679688C12.4562 0.679688 15.4642 2.85569 16.6162 6.24769L15.4002 6.69569C14.4402 3.75169 11.9442 1.95969 9.00018 1.95969C5.09618 1.95969 1.96018 5.09569 1.96018 8.99969C1.96018 12.9037 5.09618 16.0397 9.00018 16.0397C11.7522 16.0397 14.2482 14.4397 15.4002 11.9437L16.5522 12.4557C15.2082 15.3997 12.2642 17.3197 9.00018 17.3197Z" fill="#227EFF"/>
<path d="M17.3202 7.07996H12.2002V5.79996H16.0402V1.95996H17.3202V7.07996Z" fill="#227EFF"/>
</svg>
